<svg id="Capa_1" enable-background="new 0 0 512 512" height="512" viewBox="0 0 512 512" width="512" xmlns="http://www.w3.org/2000/svg"><g><g><path d="m512 43.253c0-13.882-11.253-25.135-25.135-25.135h-461.73c-13.882 0-25.135 11.253-25.135 25.135v100.483l261.159 87.664 250.841-87.664z" fill="#ebebf0"/><path d="m486.865 18.118h-230.906v211.537l5.2 1.745 250.841-87.664v-100.483c0-13.882-11.253-25.135-25.135-25.135z" fill="#cedce1"/><path d="m0 143.736v325.011c0 13.882 11.253 25.135 25.135 25.135h324.579c13.882 0 15.274-11.253 15.274-25.135l-15.274-325.011z" fill="#004960"/><path d="m255.959 143.736h93.755v350.146h-93.755z" fill="#00242f"/><path d="m61.992 65.971c10.499-1.327 19.329 7.496 18.006 17.987-.901 7.147-6.674 12.915-13.82 13.818-10.499 1.327-19.329-7.496-18.006-17.987.901-7.147 6.673-12.915 13.82-13.818z" fill="#ff303f"/><path d="m127.232 65.971c10.499-1.327 19.329 7.496 18.006 17.987-.901 7.147-6.674 12.915-13.82 13.818-10.499 1.327-19.329-7.496-18.006-17.987.901-7.147 6.673-12.915 13.82-13.818z" fill="#ffe88c"/><path d="m195.429 65.971c10.499-1.327 19.329 7.496 18.006 17.987-.901 7.147-6.674 12.915-13.82 13.818-10.499 1.327-19.329-7.496-18.006-17.987.901-7.147 6.674-12.915 13.82-13.818z" fill="#00ddc1"/></g><g><g><path d="m289.495 423.874h-151.397c-8.284 0-15-6.716-15-15s6.716-15 15-15h151.397c8.284 0 15 6.716 15 15s-6.716 15-15 15z" fill="#6bffb1"/></g></g><g><g><path d="m228.883 363.262h-151.398c-8.284 0-15-6.716-15-15s6.716-15 15-15h151.397c8.284 0 15 6.716 15 15s-6.715 15-14.999 15z" fill="#6bffb1"/></g></g><g><g><path d="m289.495 302.65h-151.397c-8.284 0-15-6.716-15-15s6.716-15 15-15h151.397c8.284 0 15 6.716 15 15s-6.716 15-15 15z" fill="#6bffb1"/></g></g><g><g><path d="m228.883 242.743h-151.398c-8.284 0-15-6.716-15-15s6.716-15 15-15h151.397c8.284 0 15 6.716 15 15s-6.715 15-14.999 15z" fill="#6bffb1"/></g></g><circle cx="288.87" cy="348.544" fill="#00f2c9" r="15"/><circle cx="78.263" cy="408.39" fill="#6bffb1" r="15"/><circle cx="288.87" cy="228.669" fill="#00f2c9" r="15"/><circle cx="78.263" cy="288.514" fill="#6bffb1" r="15"/><g><path d="m349.714 143.736v350.146h137.15c13.882 0 25.135-11.254 25.135-25.135v-325.011z" fill="#81a1b1"/></g><g fill="#00f2c9"><path d="m289.495 272.65h-33.536v30h33.536c8.284 0 15-6.716 15-15s-6.716-15-15-15z"/><path d="m289.495 393.874h-33.536v30h33.536c8.284 0 15-6.716 15-15s-6.716-15-15-15z"/></g></g></svg>